<?xml version="1.0" encoding="UTF-8"?>
<svg xmlns="http://www.w3.org/2000/svg" xmlns:xlink="http://www.w3.org/1999/xlink" width="23pt" height="23pt" viewBox="0 0 23 23" version="1.1">
<g id="surface1">
<path style=" stroke:none;fill-rule:nonzero;fill:rgb(0%,0%,0%);fill-opacity:1;" d="M 0 11.402344 C 0 8.253906 1.113281 5.566406 3.34375 3.339844 C 5.566406 1.113281 8.253906 0 11.402344 0 C 14.550781 0 17.234375 1.113281 19.464844 3.339844 C 21.6875 5.566406 22.800781 8.253906 22.800781 11.402344 C 22.800781 14.550781 21.691406 17.234375 19.464844 19.460938 C 17.238281 21.6875 14.550781 22.800781 11.402344 22.800781 C 8.253906 22.800781 5.566406 21.691406 3.34375 19.460938 C 1.113281 17.238281 0 14.550781 0 11.402344 Z M 1.246094 11.402344 C 1.246094 14.191406 2.242188 16.582031 4.230469 18.574219 C 6.21875 20.558594 8.609375 21.554688 11.402344 21.554688 C 14.191406 21.554688 16.582031 20.558594 18.574219 18.574219 C 20.558594 16.582031 21.554688 14.191406 21.554688 11.402344 C 21.554688 8.609375 20.558594 6.21875 18.574219 4.230469 C 16.582031 2.242188 14.191406 1.246094 11.402344 1.246094 C 8.609375 1.246094 6.21875 2.242188 4.230469 4.230469 C 2.242188 6.21875 1.246094 8.609375 1.246094 11.402344 Z M 4.453125 13.847656 C 4.394531 13.789062 4.394531 13.730469 4.453125 13.671875 C 4.574219 13.554688 4.71875 13.507812 4.898438 13.539062 C 5.078125 13.570312 5.179688 13.597656 5.207031 13.628906 C 5.417969 13.714844 5.648438 13.917969 5.902344 14.226562 C 6.152344 14.542969 6.355469 14.753906 6.503906 14.875 C 7.214844 15.46875 7.941406 15.511719 8.683594 15.007812 C 8.746094 14.800781 8.839844 14.621094 8.972656 14.472656 C 9.109375 14.324219 9.230469 14.21875 9.351562 14.160156 C 9.472656 14.105469 9.675781 14.015625 9.976562 13.894531 C 8.996094 13.804688 8.203125 13.636719 7.59375 13.382812 C 6.984375 13.132812 6.503906 12.808594 6.144531 12.421875 C 5.667969 11.890625 5.382812 11.191406 5.277344 10.332031 C 5.171875 9.472656 5.238281 8.683594 5.476562 7.96875 C 5.652344 7.523438 5.910156 7.125 6.234375 6.769531 C 6 6.027344 6.042969 5.179688 6.367188 4.230469 C 7.320312 4.289062 8.179688 4.617188 8.949219 5.207031 C 10.4375 4.824219 11.976562 4.808594 13.582031 5.167969 C 13.789062 5.019531 14.113281 4.832031 14.542969 4.609375 C 14.972656 4.386719 15.511719 4.261719 16.164062 4.230469 C 16.285156 4.558594 16.367188 4.941406 16.410156 5.386719 C 16.453125 5.832031 16.429688 6.25 16.34375 6.632812 C 17.027344 7.347656 17.382812 8.300781 17.410156 9.484375 C 17.410156 10.4375 17.25 11.222656 16.921875 11.847656 C 16.597656 12.46875 16.015625 12.988281 15.183594 13.402344 C 14.621094 13.671875 13.878906 13.835938 12.957031 13.894531 C 13.375 14.105469 13.679688 14.316406 13.871094 14.542969 C 14.066406 14.761719 14.191406 15.109375 14.25 15.585938 L 14.25 16.988281 L 14.292969 18.347656 C 14.382812 18.496094 14.488281 18.625 14.605469 18.726562 C 14.726562 18.832031 14.828125 18.90625 14.917969 18.949219 C 15.007812 18.996094 15.039062 19.0625 15.007812 19.148438 C 14.980469 19.238281 14.859375 19.28125 14.648438 19.28125 C 14.148438 19.28125 13.746094 19.101562 13.449219 18.746094 C 13.359375 18.601562 13.3125 18.421875 13.3125 18.210938 L 13.3125 16.074219 C 13.3125 15.839844 13.253906 15.667969 13.136719 15.5625 C 13.019531 15.460938 12.898438 15.394531 12.78125 15.363281 L 12.78125 18.171875 C 12.78125 18.671875 12.839844 19.003906 12.957031 19.148438 C 13.078125 19.296875 13.152344 19.449219 13.183594 19.59375 C 13.214844 19.625 13.191406 19.644531 13.117188 19.660156 C 13.042969 19.675781 12.914062 19.652344 12.738281 19.59375 C 12.351562 19.507812 12.082031 19.304688 11.933594 18.996094 C 11.789062 18.679688 11.710938 18.347656 11.710938 17.992188 L 11.710938 15.230469 L 11.132812 15.230469 L 11.132812 17.992188 C 11.132812 18.347656 11.058594 18.6875 10.910156 19.015625 C 10.703125 19.433594 10.316406 19.652344 9.75 19.683594 C 9.660156 19.652344 9.621094 19.625 9.621094 19.59375 C 9.652344 19.5625 9.738281 19.417969 9.886719 19.148438 C 9.917969 19.089844 9.953125 18.972656 10 18.792969 C 10.042969 18.617188 10.066406 18.40625 10.066406 18.171875 L 10.066406 15.363281 C 9.945312 15.394531 9.835938 15.460938 9.730469 15.5625 C 9.628906 15.667969 9.574219 15.839844 9.574219 16.078125 L 9.574219 18.214844 C 9.574219 18.421875 9.53125 18.601562 9.441406 18.75 C 9.175781 19.105469 8.769531 19.285156 8.242188 19.285156 C 8.03125 19.285156 7.910156 19.238281 7.882812 19.148438 C 7.855469 19.089844 7.863281 19.039062 7.902344 18.996094 C 7.949219 18.949219 8.015625 18.898438 8.105469 18.839844 C 8.195312 18.777344 8.253906 18.734375 8.285156 18.703125 C 8.402344 18.617188 8.492188 18.496094 8.550781 18.347656 C 8.640625 18.226562 8.664062 17.917969 8.617188 17.414062 C 8.574219 16.90625 8.566406 16.582031 8.597656 16.433594 C 7.824219 16.703125 7.035156 16.566406 6.234375 16.03125 C 6 15.796875 5.757812 15.453125 5.523438 15.011719 C 5.34375 14.679688 4.988281 14.292969 4.453125 13.847656 Z M 4.453125 13.847656 "/>
</g>
</svg>
