<?xml version="1.0" encoding="UTF-8"?>
<svg xmlns="http://www.w3.org/2000/svg" xmlns:xlink="http://www.w3.org/1999/xlink" width="23pt" height="23pt" viewBox="0 0 23 23" version="1.1">
<g id="surface1">
<path style=" stroke:none;fill-rule:evenodd;fill:rgb(85.490196%,36.078431%,36.078431%);fill-opacity:1;" d="M 3.089844 2.902344 C 3.503906 2.488281 4.0625 2.257812 4.648438 2.257812 L 17.894531 2.257812 C 18.480469 2.257812 19.042969 2.488281 19.457031 2.902344 C 19.871094 3.316406 20.101562 3.878906 20.101562 4.464844 L 20.101562 17.707031 C 20.101562 18.292969 19.871094 18.855469 19.457031 19.269531 C 19.042969 19.683594 18.480469 19.917969 17.894531 19.917969 L 4.648438 19.917969 C 4.0625 19.917969 3.503906 19.683594 3.089844 19.269531 C 2.675781 18.855469 2.441406 18.292969 2.441406 17.707031 L 2.441406 4.464844 C 2.441406 3.878906 2.675781 3.316406 3.089844 2.902344 Z M 17.894531 0.0507812 L 4.648438 0.0507812 C 3.480469 0.0507812 2.355469 0.515625 1.527344 1.34375 C 0.699219 2.171875 0.234375 3.292969 0.234375 4.464844 L 0.234375 17.707031 C 0.234375 18.878906 0.699219 20.003906 1.527344 20.832031 C 2.355469 21.660156 3.480469 22.125 4.648438 22.125 L 17.894531 22.125 C 19.066406 22.125 20.1875 21.660156 21.015625 20.832031 C 21.84375 20.003906 22.308594 18.878906 22.308594 17.707031 L 22.308594 4.464844 C 22.308594 3.292969 21.84375 2.171875 21.015625 1.34375 C 20.1875 0.515625 19.066406 0.0507812 17.894531 0.0507812 Z M 16.789062 16.414062 L 16.789062 12.332031 C 16.789062 10.148438 15.621094 9.128906 14.066406 9.128906 C 12.808594 9.128906 12.25 9.820312 11.933594 10.308594 L 11.933594 10.328125 L 11.917969 10.328125 L 11.933594 10.304688 L 11.933594 9.296875 L 9.566406 9.296875 C 9.601562 9.964844 9.566406 16.414062 9.566406 16.414062 L 11.933594 16.414062 L 11.933594 12.441406 C 11.933594 12.226562 11.949219 12.015625 12.011719 11.863281 C 12.183594 11.4375 12.574219 10.996094 13.226562 10.996094 C 14.082031 10.996094 14.425781 11.648438 14.425781 12.605469 L 14.425781 16.414062 Z M 5.753906 7.097656 C 5.753906 6.398438 6.28125 5.867188 7.09375 5.867188 C 7.902344 5.867188 8.398438 6.398438 8.414062 7.097656 C 8.414062 7.78125 7.902344 8.328125 7.078125 8.328125 L 7.0625 8.328125 C 6.269531 8.328125 5.753906 7.78125 5.753906 7.097656 Z M 8.261719 16.414062 L 5.894531 16.414062 L 5.894531 9.296875 L 8.261719 9.296875 Z M 8.261719 16.414062 "/>
</g>
</svg>
