<?xml version="1.0" encoding="UTF-8"?>
<svg xmlns="http://www.w3.org/2000/svg" xmlns:xlink="http://www.w3.org/1999/xlink" width="30pt" height="23pt" viewBox="0 0 30 23" version="1.1">
<g id="surface1">
<path style=" stroke:none;fill-rule:nonzero;fill:rgb(85.490196%,36.078431%,36.078431%);fill-opacity:1;" d="M 29.804688 11.773438 C 29.804688 11.699219 29.804688 11.613281 29.800781 11.515625 C 29.800781 11.242188 29.792969 10.9375 29.785156 10.609375 C 29.757812 9.667969 29.710938 8.730469 29.640625 7.847656 C 29.539062 6.628906 29.394531 5.617188 29.195312 4.855469 C 28.984375 4.058594 28.570312 3.332031 27.996094 2.75 C 27.421875 2.167969 26.707031 1.75 25.921875 1.53125 C 24.980469 1.277344 23.140625 1.117188 20.542969 1.019531 C 19.308594 0.972656 17.988281 0.941406 16.667969 0.925781 C 16.207031 0.917969 15.777344 0.917969 15.390625 0.914062 L 14.414062 0.914062 C 14.027344 0.917969 13.597656 0.917969 13.136719 0.925781 C 11.816406 0.941406 10.496094 0.972656 9.261719 1.019531 C 6.667969 1.121094 4.820312 1.28125 3.882812 1.53125 C 3.097656 1.746094 2.382812 2.167969 1.808594 2.75 C 1.234375 3.332031 0.820312 4.058594 0.613281 4.855469 C 0.410156 5.617188 0.265625 6.628906 0.167969 7.847656 C 0.09375 8.730469 0.046875 9.667969 0.0195312 10.609375 C 0.0117188 10.9375 0.0078125 11.242188 0.00390625 11.515625 C 0.00390625 11.613281 0 11.699219 0 11.773438 L 0 11.960938 C 0 12.035156 0 12.117188 0.00390625 12.214844 C 0.0078125 12.488281 0.0117188 12.796875 0.0195312 13.125 C 0.046875 14.0625 0.09375 15 0.167969 15.882812 C 0.265625 17.101562 0.414062 18.117188 0.613281 18.878906 C 1.039062 20.492188 2.289062 21.769531 3.882812 22.199219 C 4.820312 22.457031 6.667969 22.613281 9.261719 22.710938 C 10.496094 22.757812 11.816406 22.789062 13.136719 22.804688 C 13.597656 22.8125 14.027344 22.816406 14.414062 22.820312 L 15.390625 22.820312 C 15.777344 22.816406 16.207031 22.8125 16.667969 22.804688 C 17.988281 22.789062 19.308594 22.757812 20.542969 22.710938 C 23.140625 22.609375 24.984375 22.453125 25.921875 22.199219 C 27.515625 21.769531 28.769531 20.496094 29.195312 18.878906 C 29.398438 18.117188 29.539062 17.101562 29.640625 15.882812 C 29.710938 15 29.757812 14.0625 29.785156 13.125 C 29.796875 12.796875 29.800781 12.488281 29.800781 12.214844 C 29.800781 12.117188 29.804688 12.035156 29.804688 11.960938 Z M 27.410156 11.945312 C 27.410156 12.019531 27.410156 12.09375 27.40625 12.1875 C 27.402344 12.449219 27.398438 12.738281 27.390625 13.054688 C 27.367188 13.949219 27.320312 14.847656 27.25 15.679688 C 27.160156 16.765625 27.035156 17.65625 26.878906 18.25 C 26.671875 19.03125 26.066406 19.648438 25.300781 19.851562 C 24.601562 20.042969 22.84375 20.191406 20.453125 20.285156 C 19.242188 20.332031 17.9375 20.363281 16.636719 20.378906 C 16.179688 20.386719 15.757812 20.390625 15.378906 20.390625 L 14.425781 20.390625 L 13.167969 20.378906 C 11.867188 20.363281 10.570312 20.332031 9.355469 20.285156 C 6.960938 20.191406 5.199219 20.042969 4.503906 19.851562 C 3.738281 19.644531 3.132812 19.03125 2.925781 18.25 C 2.769531 17.65625 2.644531 16.765625 2.554688 15.679688 C 2.484375 14.847656 2.441406 13.949219 2.414062 13.054688 C 2.40625 12.738281 2.402344 12.445312 2.398438 12.1875 C 2.398438 12.09375 2.394531 12.015625 2.394531 11.945312 L 2.394531 11.785156 C 2.394531 11.714844 2.394531 11.636719 2.398438 11.546875 C 2.402344 11.28125 2.410156 10.992188 2.414062 10.679688 C 2.4375 9.78125 2.484375 8.886719 2.554688 8.054688 C 2.644531 6.96875 2.769531 6.078125 2.925781 5.480469 C 3.132812 4.703125 3.738281 4.085938 4.503906 3.878906 C 5.203125 3.691406 6.960938 3.539062 9.355469 3.449219 C 10.566406 3.402344 11.867188 3.371094 13.167969 3.355469 C 13.625 3.347656 14.046875 3.34375 14.425781 3.34375 L 15.378906 3.34375 L 16.636719 3.355469 C 17.9375 3.371094 19.238281 3.402344 20.453125 3.449219 C 22.84375 3.542969 24.605469 3.691406 25.300781 3.878906 C 26.066406 4.089844 26.671875 4.703125 26.878906 5.480469 C 27.035156 6.078125 27.160156 6.96875 27.25 8.054688 C 27.320312 8.886719 27.363281 9.78125 27.390625 10.679688 C 27.402344 10.992188 27.402344 11.285156 27.40625 11.546875 C 27.40625 11.636719 27.410156 11.71875 27.410156 11.785156 Z M 11.941406 16.382812 L 19.660156 11.832031 L 11.941406 7.347656 Z M 11.941406 16.382812 "/>
</g>
</svg>
